#!OML:ASF G:\JayActor3\Patient Classification 1\Patient 1\Session 6\male.ASF
:FULLY-SPECIFIED
:DEGREES
488
root 18.4186 16.1281 -10.0192 175.272 -36.6784 -180.722
lowerback 1.35672 -2.51869 -0.861932
upperback 3.62443 -3.52831 1.64401
thorax 3.12157 -1.86885 2.11639
lowerneck 5.2557 6.00732 6.52063
upperneck -14.4255 7.8987 -4.29757
head -4.74639 3.64304 -2.79248
rclavicle 9.98644e-014 -7.95139e-016
rhumerus -48.5788 10.888 -72.0455
rradius 35.1246
rwrist 4.55754
rhand -7.41927 -10.831
rfingers 7.12502
rthumb 18.4675 -39.9744
lclavicle 9.98644e-014 -7.95139e-016
lhumerus -12.1206 -6.1623 73.4183
lradius 55.4508
lwrist 31.8772
lhand -14.3374 13.9751
lfingers 7.12502
lthumb 11.8037 43.6225
rfemur -30.9662 -7.20489 21.9869
rtibia 58.5185
rfoot -17.1901 -9.77541
rtoes -7.2638
lfemur 14.9047 8.77414 -21.5941
ltibia 13.9485
lfoot -17.7577 9.64882
ltoes -1.37865
489
root 18.314 16.1248 -10.1173 175.576 -36.5606 -181.004
lowerback 1.17946 -2.60345 -0.976474
upperback 3.61031 -3.64405 1.75299
thorax 3.22695 -1.93244 2.28127
lowerneck 5.14578 6.01677 6.69252
upperneck -13.7562 7.92968 -4.49129
head -4.50532 3.68846 -2.85702
rclavicle -4.91992e-015 -9.54166e-015
rhumerus -49.0394 10.6202 -71.0542
rradius 35.3858
rwrist 4.75792
rhand -7.63588 -10.7487
rfingers 7.12502
rthumb 18.2592 -39.9117
lclavicle -4.91992e-015 -9.54166e-015
lhumerus -11.7377 -6.60782 73.1723
lradius 56.564
lwrist 31.9309
lhand -14.291 13.8838
lfingers 7.12502
lthumb 11.8485 43.5286
rfemur -31.3595 -6.39187 21.9345
rtibia 56.0351
rfoot -17.5449 -9.97959
rtoes -7.2649
lfemur 16.5405 8.89276 -21.8961
ltibia 11.6951
lfoot -17.1557 9.8821
ltoes -1.3973
490
root 18.2093 16.118 -10.2148 175.872 -36.4394 -181.278
lowerback 1.01083 -2.67488 -1.05722
upperback 3.60441 -3.74255 1.85489
thorax 3.33335 -1.98675 2.42012
lowerneck 5.06122 6.01221 6.883
upperneck -13.08 7.94636 -4.68877
head -4.26714 3.72587 -2.9255
rclavicle 5.81445e-015 3.18055e-015
rhumerus -49.4522 10.3096 -70.0666
rradius 35.6108
rwrist 5.05579
rhand -7.89129 -10.6471
rfingers 7.12502
rthumb 18.0134 -39.833
lclavicle 5.81445e-015 3.18055e-015
lhumerus -11.3306 -7.05964 72.9146
lradius 57.6173
lwrist 32.0635
lhand -14.2667 13.7794
lfingers 7.12502
lthumb 11.8719 43.4228
rfemur -31.7018 -5.49193 21.8055
rtibia 53.5023
rfoot -17.7697 -10.0697
rtoes -7.34191
lfemur 18.5651 9.43206 -22.0498
ltibia 8.77106
lfoot -16.1891 9.76499
ltoes -1.42464
491
root 18.1046 16.1078 -10.3114 176.155 -36.3294 -181.542
lowerback 0.857101 -2.73755 -1.11084
upperback 3.60865 -3.83035 1.95215
thorax 3.43981 -2.03536 2.53943
lowerneck 5.00059 5.99409 7.08562
upperneck -12.4016 7.94826 -4.88935
head -4.03338 3.75508 -2.99692
rclavicle 4.27387e-015 -1.74931e-014
rhumerus -49.8239 9.97193 -69.0938
rradius 35.813
rwrist 5.38508
rhand -8.17935 -10.5423
rfingers 7.12502
rthumb 17.7363 -39.7535
lclavicle 4.27387e-015 -1.74931e-014
lhumerus -10.8974 -7.50524 72.6512
lradius 58.6062
lwrist 32.2484
lhand -14.2536 13.6833
lfingers 7.12502
lthumb 11.8846 43.326
rfemur -31.9986 -4.51192 21.5936
rtibia 50.9572
rfoot -17.8676 -10.0225
rtoes -7.52138
lfemur 21.6488 9.94596 -22.1541
ltibia 3.92134
lfoot -14.3724 9.83111
ltoes -1.4823
492
root 17.9998 16.0939 -10.4071 176.43 -36.2526 -181.831
lowerback 0.731787 -2.7969 -1.1658
upperback 3.62447 -3.91431 2.03868
thorax 3.5419 -2.0824 2.64942
lowerneck 4.98363 5.95837 7.29541
upperneck -11.7412 7.92999 -5.09693
head -3.81372 3.77354 -3.07298
rclavicle -5.02428e-014 -2.70347e-014
rhumerus -50.165 9.61625 -68.142
rradius 35.9966
rwrist 5.68729
rhand -8.49467 -10.4631
rfingers 7.12502
rthumb 17.4328 -39.7014
lclavicle -5.02428e-014 -2.70347e-014
lhumerus -10.4473 -7.936 72.3936
lradius 59.5244
lwrist 32.4482
lhand -14.2116 13.5916
lfingers 7.12502
lthumb 11.925 43.232
rfemur -32.2409 -3.47371 21.2566
rtibia 48.4469
rfoot -17.8441 -9.80911
rtoes -7.83089
lfemur 24.258 10.4172 -22.2503
ltibia -3.81667e-014
lfoot -12.9848 9.81761
ltoes -1.6564
493
root 17.8953 16.0772 -10.5015 176.677 -36.2193 -182.118
lowerback 0.641937 -2.86107 -1.21237
upperback 3.6537 -4.00633 2.12494
thorax 3.63829 -2.13397 2.75545
lowerneck 5.00314 5.91329 7.51139
upperneck -11.1053 7.90126 -5.31424
head -3.60817 3.78583 -3.15467
rclavicle 7.05686e-015 -2.46493e-014
rhumerus -50.4677 9.26347 -67.2215
rradius 36.1624
rwrist 5.91277
rhand -8.8322 -10.4035
rfingers 7.12502
rthumb 17.108 -39.6703
lclavicle 7.05686e-015 -2.46493e-014
lhumerus -9.98699 -8.33223 72.1485
lradius 60.3751
lwrist 32.6504
lhand -14.1538 13.5243
lfingers 7.12502
lthumb 11.9808 43.1614
rfemur -32.4327 -2.35754 20.8095
rtibia 46.0145
rfoot -17.7384 -9.41732
rtoes -8.14963
lfemur 24.755 10.8542 -22.3723
ltibia 6.36111e-015
lfoot -13.3726 9.44077
ltoes -1.93481
494
root 17.7913 16.0578 -10.5949 176.883 -36.238 -182.391
lowerback 0.58714 -2.93499 -1.24633
upperback 3.70366 -4.11399 2.21445
thorax 3.73729 -2.19416 2.85834
lowerneck 5.05795 5.86508 7.73099
upperneck -10.505 7.86935 -5.54478
head -3.4193 3.79548 -3.24315
rclavicle 2.96189e-014 -3.33958e-014
rhumerus -50.7242 8.92301 -66.344
rradius 36.3111
rwrist 6.03233
rhand -9.18515 -10.3879
rfingers 7.12502
rthumb 16.7682 -39.6838
lclavicle 2.96189e-014 -3.33958e-014
lhumerus -9.52021 -8.67325 71.9198
lradius 61.1572
lwrist 32.8036
lhand -14.0529 13.5033
lfingers 7.12502
lthumb 12.0781 43.1347
rfemur -32.5715 -1.16593 20.2626
rtibia 43.7063
rfoot -17.5647 -8.87348
rtoes -8.44608
lfemur 25.2848 11.2385 -22.478
ltibia -3.18055e-015
lfoot -13.7435 9.08807
ltoes -2.37772
495
root 17.6887 16.0366 -10.6876 177.039 -36.3142 -182.635
lowerback 0.570869 -3.01964 -1.26583
upperback 3.77017 -4.23889 2.31282
thorax 3.83309 -2.2638 2.96315
lowerneck 5.14889 5.81533 7.96528
upperneck -9.94184 7.83692 -5.79608
head -3.24663 3.80385 -3.34257
rclavicle -6.37105e-014 9.54166e-015
rhumerus -50.9469 8.59737 -65.5149
rradius 36.4436
rwrist 6.04367
rhand -9.54903 -10.4273
rfingers 7.12502
rthumb 16.4179 -39.7525
lclavicle -6.37105e-014 9.54166e-015
lhumerus -9.06137 -8.96277 71.7198
lradius 61.8669
lwrist 32.9092
lhand -13.9429 13.4722
lfingers 7.12502
lthumb 12.1841 43.0973
rfemur -32.6627 0.0935927 19.6365
rtibia 41.5621
rfoot -17.346 -8.24649
rtoes -8.70559
lfemur 25.8447 11.5626 -22.5508
ltibia 0
lfoot -14.0916 8.76015
ltoes -2.9511
496
root 17.588 16.0134 -10.7802 177.141 -36.4463 -182.832
lowerback 0.580935 -3.11623 -1.26318
upperback 3.85168 -4.38316 2.42544
thorax 3.93105 -2.34387 3.0705
lowerneck 5.27861 5.76823 8.20091
upperneck -9.4259 7.80964 -6.05514
head -3.09422 3.81346 -3.44745
rclavicle 9.53172e-014 3.33958e-014
rhumerus -51.1236 8.26636 -64.7297
rradius 36.5394
rwrist 5.97675
rhand -9.91424 -10.494
rfingers 7.12502
rthumb 16.0662 -39.8479
lclavicle 9.53172e-014 3.33958e-014
lhumerus -8.62306 -9.19599 71.5547
lradius 62.508
lwrist 32.9927
lhand -13.8421 13.4283
lfingers 7.12502
lthumb 12.2814 43.0477
rfemur -32.7204 1.39505 18.9696
rtibia 39.6185
rfoot -17.1006 -7.62351
rtoes -8.93339
lfemur 26.4255 11.8256 -22.572
ltibia 4.45278e-014
lfoot -14.4065 8.4573
ltoes -3.64119
497
root 17.4898 15.9885 -10.8733 177.212 -36.6332 -182.997
lowerback 0.602884 -3.2203 -1.25428
upperback 3.93971 -4.53959 2.54875
thorax 4.0311 -2.4308 3.1853
lowerneck 5.44114 5.71995 8.4372
upperneck -8.9482 7.7828 -6.31583
head -2.95892 3.8221 -3.55527
rclavicle -1.5704e-014 6.36111e-015
rhumerus -51.2662 7.90962 -63.9864
rradius 36.5928
rwrist 5.86107
rhand -10.2701 -10.5925
rfingers 7.12502
rthumb 15.7235 -39.9738
lclavicle -1.5704e-014 6.36111e-015
lhumerus -8.21368 -9.37933 71.4347
lradius 63.0766
lwrist 33.0362
lhand -13.7321 13.3779
lfingers 7.12502
lthumb 12.3874 42.9909
rfemur -32.7647 2.68876 18.2837
rtibia 37.9036
rfoot -16.8562 -7.09575
rtoes -9.18927
lfemur 27.0087 12.0271 -22.5511
ltibia 5.08889e-014
lfoot -14.6823 8.1713
ltoes -4.41038
